# xmcd
#
# Track frame offsets:
#        150
#        18763
#        42054
#        74030
#        99120
#        115200
#        133455
#
# Disc length: 2038 seconds
#
# Revision: 0
# Processed by: cddbd v1.5.1PL2 Copyright (c) Steve Scherf et al.
# Submitted via: ExactAudioCopy v0.95a5
#
DISCID=5a07f407
DTITLE=Giraffes? Giraffes! - Superbass!!!
DYEAR=2005
DGENRE=Alternative
TTITLE0=Fucking Ants Man! Where They Coming From?
TTITLE1=Ko-Ink-E-Dink? I Think Not!
TTITLE2=And Then She Look'd Down And Saw Miniature Houses And Minia
TTITLE2=ture People...
TTITLE3=It's Easy-Eeeee To Be Full Of Shit And Look Good In Black
TTITLE4=Tomhanks'ses' (Em) Antics'es's
TTITLE5=I Dreamedpt I Had A Little Death But Camed For The Big Sleep
TTITLE6=She Looked Up From Examining The Frekles On Her Arm And Shoute
TTITLE6=d, ...
EXTD=
EXTT0=
EXTT1=
EXTT2=
EXTT3=
EXTT4=
EXTT5=
EXTT6=
PLAYORDER=
